<?xml version="1.0" encoding="UTF-8"?>
<svg version="1.1" xmlns="http://www.w3.org/2000/svg" width="1920" height="1920">
<path d="M0 0 C633.6 0 1267.2 0 1920 0 C1920 633.6 1920 1267.2 1920 1920 C1286.4 1920 652.8 1920 0 1920 C0 1286.4 0 652.8 0 0 Z " fill="#FEFEFE" transform="translate(0,0)"/>
<path d="M0 0 C1.57850164 -0.00693556 3.15700302 -0.01393067 4.73550415 -0.02098083 C9.74815159 -0.04012518 14.7607578 -0.0448968 19.7734375 -0.046875 C21.05059883 -0.04797964 21.05059883 -0.04797964 22.3535614 -0.0491066 C47.40291386 -0.06677775 72.2462409 0.20582846 97.1484375 3.203125 C98.30311523 3.33654297 99.45779297 3.46996094 100.64746094 3.60742188 C105.53273983 4.17682811 110.40973675 4.780219 115.28125 5.45703125 C118.71179032 5.92543437 122.13878214 6.30222214 125.58691406 6.6081543 C137.45810315 7.67027225 148.98218562 9.46946208 160.6484375 11.890625 C162.39460887 12.24651909 164.14078406 12.60239446 165.88696289 12.95825195 C184.25197547 16.7351142 202.49342034 21.03844085 220.43432617 26.51171875 C224.72566705 27.81752391 229.02686766 28.89035055 233.3984375 29.890625 C251.88687895 34.29938901 269.95523431 41.49575767 287.50170898 48.71533203 C292.57522121 50.80110442 297.65521537 52.74041946 302.84375 54.5234375 C310.28375076 57.15024969 317.37198852 60.38022538 324.49194336 63.76928711 C326.60516677 64.77477443 328.72303485 65.76991623 330.84179688 66.76367188 C332.21382021 67.41086817 333.58557504 68.05863404 334.95703125 68.70703125 C335.57694443 68.99880753 336.1968576 69.2905838 336.83555603 69.59120178 C341.06541559 71.60941827 345.09168926 73.86524843 349.1484375 76.203125 C350.57058774 76.78389839 352.00775859 77.33004861 353.4609375 77.828125 C360.79118682 80.68364003 367.48583564 84.73402514 374.3125 88.60644531 C377.50776133 90.40543026 380.71738827 92.1769346 383.9296875 93.9453125 C385.7231597 94.93411875 387.51650313 95.92315828 389.30984497 96.91220093 C391.03687205 97.86359554 392.76536361 98.81233024 394.49389648 99.76098633 C410.09489446 108.38904656 410.09489446 108.38904656 415.1484375 112.203125 C415.1484375 112.863125 415.1484375 113.523125 415.1484375 114.203125 C416.18738159 114.57087036 416.18738159 114.57087036 417.24731445 114.94604492 C420.60577676 116.4012938 423.54259077 118.28105236 426.56640625 120.31640625 C427.17663132 120.72226959 427.78685638 121.12813293 428.41557312 121.54629517 C430.39266128 122.86406151 432.36465113 124.18919791 434.3359375 125.515625 C435.34711639 126.19348557 435.34711639 126.19348557 436.37872314 126.88504028 C452.34452418 137.59099661 467.82941879 148.64528679 482.60839844 160.95410156 C483.89845122 162.00037773 485.24096939 162.98151034 486.59375 163.9453125 C487.10679688 164.36039063 487.61984375 164.77546875 488.1484375 165.203125 C488.1484375 165.863125 488.1484375 166.523125 488.1484375 167.203125 C488.94121094 167.54923828 488.94121094 167.54923828 489.75 167.90234375 C492.92337447 169.6234084 495.68899028 171.7983558 498.5234375 174.015625 C499.07515625 174.44166016 499.626875 174.86769531 500.1953125 175.30664062 C510.82442172 183.55293311 510.82442172 183.55293311 514.5234375 188.078125 C518.95398097 193.2715435 524.08096562 197.50287891 529.3359375 201.828125 C532.1036426 204.1652982 534.5985233 206.63106973 537.1484375 209.203125 C538.12662217 210.1715658 539.10581781 211.13898635 540.0859375 212.10546875 C541.1067942 213.11716392 542.1276273 214.12888291 543.1484375 215.140625 C543.65632813 215.64013672 544.16421875 216.13964844 544.6875 216.65429688 C548.06419999 220.00935135 551.10388512 223.53892815 554.1484375 227.203125 C555.8026099 228.88219297 557.47073773 230.54756496 559.1484375 232.203125 C563.85954497 237.11667334 568.49964766 242.09869947 573.15087891 247.06884766 C574.40448782 248.40825723 575.65920274 249.74663341 576.91552734 251.08349609 C578.43541318 252.7023555 579.94926496 254.32659884 581.4609375 255.953125 C582.72357422 257.30664062 582.72357422 257.30664062 584.01171875 258.6875 C586.1484375 261.203125 586.1484375 261.203125 587.65625 263.71875 C589.3804589 266.5894224 591.40576502 268.77584868 593.7109375 271.203125 C599.27048733 277.23668269 604.26458917 283.61714068 609.1484375 290.203125 C609.59429199 290.79786621 610.04014648 291.39260742 610.49951172 292.00537109 C619.60158605 304.17863887 627.98514878 316.83145565 636.37011719 329.50292969 C636.82645035 330.19221558 637.28278351 330.88150146 637.75294495 331.5916748 C638.65183788 332.94949406 639.55023076 334.30764451 640.44810486 335.6661377 C642.86117676 339.30580598 645.33060638 342.89037437 647.87890625 346.4375 C651.71522647 351.86869492 654.89229633 357.62795914 658.0859375 363.453125 C659.31592085 365.67474797 660.54638592 367.89610432 661.77734375 370.1171875 C662.36016113 371.17196289 662.94297852 372.22673828 663.54345703 373.31347656 C665.50186389 376.83944304 667.50559799 380.33586415 669.5234375 383.828125 C672.22638311 388.54810744 674.87386412 393.29387616 677.4609375 398.078125 C677.78690918 398.67318848 678.11288086 399.26825195 678.44873047 399.88134766 C680.43126539 403.58324915 681.96735917 407.29532505 683.39086914 411.22949219 C684.6054566 414.39376065 686.15805486 417.38329294 687.7109375 420.390625 C688.42190805 421.79750316 689.13147254 423.20509251 689.83984375 424.61328125 C690.21383301 425.35594238 690.58782227 426.09860352 690.97314453 426.86376953 C697.44594496 439.74751978 703.24476246 452.58637349 708.015625 466.19921875 C710.2189463 472.47646633 712.60371683 478.68002771 714.99078369 484.88925171 C718.55285119 494.17028063 722.03763454 503.46877969 725.2109375 512.890625 C725.48558838 513.69636963 725.76023926 514.50211426 726.04321289 515.33227539 C727.30875818 519.16847217 728.33664412 522.93808154 729.078125 526.91015625 C730.18966746 532.80638633 731.93075845 538.48565067 733.63201904 544.23410034 C737.70215271 558.07748961 741.02880537 572.0275895 744.0234375 586.140625 C744.21011993 587.01678467 744.39680237 587.89294434 744.58914185 588.7956543 C751.0901149 619.44109529 751.0901149 619.44109529 752.0859375 632.328125 C752.23751603 634.08481502 752.39138189 635.8413084 752.546875 637.59765625 C752.63549805 638.60135254 752.72412109 639.60504883 752.81542969 640.63916016 C753.22105501 644.98030267 753.67037758 649.31609873 754.125 653.65234375 C754.21340652 654.49829102 754.30181305 655.34423828 754.39289856 656.21582031 C754.75251129 659.6531576 755.11255942 663.09043711 755.47799683 666.52716064 C755.73705849 668.96701761 755.99185761 671.40729233 756.24609375 673.84765625 C756.32207794 674.55153976 756.39806213 675.25542328 756.47634888 675.9806366 C757.85562634 689.32902765 758.31471051 702.64688363 758.3515625 716.0546875 C758.35849806 717.63318914 758.36549317 719.21169052 758.37254333 720.79019165 C758.39168768 725.80283909 758.3964593 730.8154453 758.3984375 735.828125 C758.39917393 736.67956589 758.39991035 737.53100677 758.4006691 738.4082489 C758.41834025 763.45760136 758.14573404 788.3009284 755.1484375 813.203125 C755.01501953 814.35780273 754.88160156 815.51248047 754.74414062 816.70214844 C754.17473439 821.58742733 753.5713435 826.46442425 752.89453125 831.3359375 C752.42612813 834.76647782 752.04934036 838.19346964 751.7434082 841.64160156 C750.68129625 853.51272361 748.88255746 865.0370058 746.4609375 876.703125 C746.28580627 877.56176147 746.11067505 878.42039795 745.93023682 879.30505371 C741.85195275 899.29986517 737.28332163 919.17881868 731.10107422 938.64160156 C729.93200048 942.35454671 728.97307069 945.98184774 728.29296875 949.81640625 C726.94992249 956.8432351 724.50088933 963.52776046 722.1484375 970.265625 C721.90744324 970.96266541 721.66644897 971.65970581 721.41815186 972.37786865 C717.7634086 982.93986289 713.84831083 993.37294795 709.5859375 1003.70727539 C707.52576646 1008.70310258 705.61724823 1013.70273025 703.8671875 1018.81640625 C701.11160363 1026.62264733 697.66581256 1034.0461369 694.10009766 1041.51098633 C693.01129082 1043.79106141 691.93266741 1046.07574914 690.85546875 1048.36132812 C690.15943173 1049.83100284 689.46283777 1051.30041395 688.765625 1052.76953125 C688.44681366 1053.44351456 688.12800232 1054.11749786 687.79953003 1054.81190491 C686.08373813 1058.39705899 684.22361018 1061.81524405 682.1484375 1065.203125 C681.59558157 1066.58658746 681.07547951 1067.98351211 680.5859375 1069.390625 C677.69827272 1076.7606351 673.64225396 1083.49386101 669.74511719 1090.36279297 C667.94259866 1093.56929152 666.17246387 1096.79296742 664.40625 1100.01953125 C663.41770015 1101.8197361 662.42861706 1103.61964694 661.43936157 1105.41946411 C660.48643454 1107.15664406 659.53843621 1108.89652477 658.59057617 1110.63647461 C655.38875891 1116.44300077 652.04379601 1121.96912588 648.16918945 1127.34814453 C645.60143151 1130.97595187 643.15476696 1134.67726571 640.70703125 1138.38671875 C639.70804397 1139.89770141 638.70893669 1141.40860475 637.7097168 1142.91943359 C637.19919769 1143.69148132 636.68867859 1144.46352905 636.16268921 1145.25897217 C627.17005031 1158.84217857 618.12495169 1172.31502412 608.1484375 1185.203125 C607.62942871 1185.87472656 607.11041992 1186.54632812 606.57568359 1187.23828125 C603.46416334 1191.25164941 600.31946951 1195.23664767 597.1484375 1199.203125 C596.42914062 1200.15445312 595.70984375 1201.10578125 594.96875 1202.0859375 C594.36804687 1202.78460937 593.76734375 1203.48328125 593.1484375 1204.203125 C592.4884375 1204.203125 591.8284375 1204.203125 591.1484375 1204.203125 C590.73271484 1205.08097656 590.73271484 1205.08097656 590.30859375 1205.9765625 C585.056071 1216.05716172 576.05628541 1224.39046995 568.04296875 1232.27734375 C566.18033051 1234.17070592 564.44009195 1236.12526568 562.7109375 1238.140625 C559.50763892 1241.86929373 556.08183244 1245.31251797 552.5546875 1248.734375 C550.56808231 1250.77258033 548.72105425 1252.84478793 546.87109375 1255.00390625 C543.18678638 1259.24713026 539.20775854 1263.07703538 535.0859375 1266.890625 C534.35149414 1267.57616455 533.61705078 1268.2617041 532.86035156 1268.96801758 C530.62703539 1271.05072708 528.38859614 1273.1277791 526.1484375 1275.203125 C524.16729143 1277.04065552 522.18618932 1278.87823316 520.20532227 1280.71606445 C519.03919578 1281.79679159 517.87180565 1282.87615758 516.70288086 1283.95385742 C514.23719519 1286.23233293 511.82011419 1288.53144831 509.4453125 1290.90625 C506.81811378 1293.53344872 504.03134188 1295.86076519 501.1484375 1298.203125 C499.7871875 1299.3478125 499.7871875 1299.3478125 498.3984375 1300.515625 C496.1484375 1302.203125 496.1484375 1302.203125 494.1484375 1302.203125 C494.1484375 1302.863125 494.1484375 1303.523125 494.1484375 1304.203125 C490.68689904 1307.203125 490.68689904 1307.203125 488.1484375 1307.203125 C487.75712646 1308.10611328 487.75712646 1308.10611328 487.35791016 1309.02734375 C486.05812943 1311.36558473 484.92562909 1312.42835093 482.796875 1314.015625 C482.10851563 1314.53511719 481.42015625 1315.05460937 480.7109375 1315.58984375 C479.9890625 1316.12222656 479.2671875 1316.65460938 478.5234375 1317.203125 C477.52183594 1317.95529297 477.52183594 1317.95529297 476.5 1318.72265625 C474.98900323 1319.85590383 473.47413818 1320.98400255 471.95654297 1322.10839844 C469.84614174 1323.68266748 467.74826519 1325.26918727 465.65673828 1326.86816406 C456.22289407 1334.05549687 446.55388614 1340.80857766 436.67041016 1347.36230469 C434.22215912 1348.98715738 431.78084101 1350.6220877 429.33984375 1352.2578125 C427.77904133 1353.29746899 426.21785852 1354.3365547 424.65625 1355.375 C423.92930939 1355.86232605 423.20236877 1356.3496521 422.45339966 1356.85174561 C417.37850392 1360.203125 417.37850392 1360.203125 415.1484375 1360.203125 C415.1484375 1360.863125 415.1484375 1361.523125 415.1484375 1362.203125 C413.23961532 1363.54281762 411.34922631 1364.72273169 409.3359375 1365.890625 C408.36611938 1366.46296875 408.36611938 1366.46296875 407.37670898 1367.046875 C398.22556379 1372.39738053 388.92178677 1377.48506342 379.640625 1382.60546875 C375.85786177 1384.69422141 372.08665238 1386.79766449 368.34375 1388.95703125 C361.29409111 1393.02372692 354.23177678 1396.58614986 346.69140625 1399.6875 C342.86597479 1401.323958 339.16929737 1403.13312302 335.4609375 1405.015625 C321.27089444 1412.17603843 307.21709624 1418.75738375 292.20703125 1424.0390625 C286.60921473 1426.01432522 281.07439877 1428.13681896 275.53735352 1430.27563477 C257.5906077 1437.1969871 239.48722825 1443.67859577 220.7421875 1448.09375 C217.01484658 1448.97419726 213.31695386 1449.94768694 209.6171875 1450.9375 C194.8081899 1454.88174723 179.96205808 1458.43545158 164.9609375 1461.578125 C163.75470734 1461.83160706 163.75470734 1461.83160706 162.52410889 1462.09020996 C150.52893523 1464.60130661 138.56448273 1467.04933474 126.3359375 1468.078125 C119.1108997 1468.72352582 111.89393752 1469.42808702 104.6796875 1470.18359375 C103.83497391 1470.27175354 102.99026031 1470.35991333 102.11994934 1470.45074463 C98.68832723 1470.80915189 95.25674035 1471.16776038 91.82577515 1471.53240967 C89.38545768 1471.79153439 86.94472532 1472.04643033 84.50390625 1472.30078125 C83.79999756 1472.37677048 83.09608887 1472.4527597 82.37084961 1472.53105164 C69.02247639 1473.91028166 55.70465752 1474.36939807 42.296875 1474.40625 C40.71837336 1474.41318556 39.13987198 1474.42018067 37.56137085 1474.42723083 C32.54872341 1474.44637518 27.5361172 1474.4511468 22.5234375 1474.453125 C21.67199661 1474.45386143 20.82055573 1474.45459785 19.9433136 1474.4553566 C-5.10603886 1474.47302775 -29.9493659 1474.20042154 -54.8515625 1471.203125 C-56.00624023 1471.06970703 -57.16091797 1470.93628906 -58.35058594 1470.79882812 C-63.23586483 1470.22942189 -68.11286175 1469.626031 -72.984375 1468.94921875 C-76.41491532 1468.48081563 -79.84190714 1468.10402786 -83.29003906 1467.7980957 C-95.16122815 1466.73597775 -106.68531062 1464.93678792 -118.3515625 1462.515625 C-120.09773387 1462.15973091 -121.84390906 1461.80385554 -123.59008789 1461.44799805 C-141.95510047 1457.6711358 -160.19654534 1453.36780915 -178.13745117 1447.89453125 C-182.42879205 1446.58872609 -186.72999266 1445.51589945 -191.1015625 1444.515625 C-209.28247069 1440.19116446 -227.04341939 1433.11288557 -244.35571289 1426.15942383 C-248.37886213 1424.54390565 -252.3879758 1422.99344828 -256.51171875 1421.65234375 C-260.63196825 1420.30961221 -264.58111992 1418.71316127 -268.5390625 1416.953125 C-269.22548828 1416.65011475 -269.91191406 1416.34710449 -270.61914062 1416.03491211 C-277.47404264 1412.97784694 -284.16957038 1409.61899931 -290.8515625 1406.203125 C-302.46387758 1400.26132894 -302.46387758 1400.26132894 -314.47192383 1395.18774414 C-316.7406138 1394.24903206 -318.8105733 1393.18970074 -320.9453125 1391.98046875 C-322.12081665 1391.31760864 -322.12081665 1391.31760864 -323.32006836 1390.64135742 C-324.15546143 1390.16674072 -324.99085449 1389.69212402 -325.8515625 1389.203125 C-326.71724854 1388.71497314 -327.58293457 1388.22682129 -328.47485352 1387.72387695 C-331.28958088 1386.13654123 -334.10205105 1384.54526664 -336.9140625 1382.953125 C-343.19164466 1379.39960557 -349.47189655 1375.85155953 -355.76928711 1372.33325195 C-368.38122777 1365.27648013 -368.38122777 1365.27648013 -372.8515625 1362.203125 C-372.8515625 1361.543125 -372.8515625 1360.883125 -372.8515625 1360.203125 C-373.54419189 1359.95796143 -374.23682129 1359.71279785 -374.95043945 1359.46020508 C-378.30890176 1358.0049562 -381.24571577 1356.12519764 -384.26953125 1354.08984375 C-384.87975632 1353.68398041 -385.48998138 1353.27811707 -386.11869812 1352.85995483 C-388.09578628 1351.54218849 -390.06777613 1350.21705209 -392.0390625 1348.890625 C-392.71318176 1348.43871796 -393.38730103 1347.98681091 -394.08184814 1347.52120972 C-410.04764918 1336.81525339 -425.53254379 1325.76096321 -440.31152344 1313.45214844 C-441.60157622 1312.40587227 -442.94409439 1311.42473966 -444.296875 1310.4609375 C-445.06644531 1309.83832031 -445.06644531 1309.83832031 -445.8515625 1309.203125 C-445.8515625 1308.543125 -445.8515625 1307.883125 -445.8515625 1307.203125 C-446.4703125 1306.89375 -447.0890625 1306.584375 -447.7265625 1306.265625 C-449.1015625 1305.578125 -450.4765625 1304.890625 -451.8515625 1304.203125 C-451.8515625 1303.543125 -451.8515625 1302.883125 -451.8515625 1302.203125 C-452.43035156 1301.93242188 -453.00914062 1301.66171875 -453.60546875 1301.3828125 C-457.33333628 1299.42487164 -460.5254766 1296.76781774 -463.8515625 1294.203125 C-464.6971875 1293.584375 -465.5428125 1292.965625 -466.4140625 1292.328125 C-468.57524454 1290.44401758 -470.31064994 1288.56546271 -472.1640625 1286.390625 C-476.62060063 1281.17841302 -481.75993166 1276.92325577 -487.0390625 1272.578125 C-489.8081259 1270.23980479 -492.29989069 1267.77651317 -494.8515625 1265.203125 C-495.95222047 1264.11236775 -497.0538365 1263.02257667 -498.15625 1261.93359375 C-509.27559802 1250.91309811 -509.27559802 1250.91309811 -514.34765625 1244.92578125 C-516.47994461 1242.48334186 -518.79742546 1240.24741072 -521.109375 1237.9765625 C-522.89872077 1236.15512085 -524.56444782 1234.26598221 -526.2265625 1232.328125 C-528.85536605 1229.27302899 -531.60764369 1226.40904488 -534.4765625 1223.578125 C-539.8226876 1218.2865522 -544.78376273 1213.02799113 -547.7890625 1206.015625 C-548.71313649 1204.05247372 -548.71313649 1204.05247372 -550.74658203 1203.29272461 C-553.05954544 1202.09546693 -554.04526899 1201.02655287 -555.59375 1198.95703125 C-556.09447021 1198.29574219 -556.59519043 1197.63445312 -557.11108398 1196.953125 C-557.64419189 1196.23125 -558.1772998 1195.509375 -558.7265625 1194.765625 C-559.58519897 1193.61900391 -559.58519897 1193.61900391 -560.46118164 1192.44921875 C-561.66886 1190.83349871 -562.87297661 1189.21511102 -564.07373047 1187.59423828 C-565.71443324 1185.3875584 -567.37470697 1183.197592 -569.04296875 1181.01171875 C-577.90885613 1169.29747802 -586.02959906 1157.10388203 -594.12475586 1144.8515625 C-594.57856125 1144.16483459 -595.03236664 1143.47810669 -595.49992371 1142.77056885 C-596.39277793 1141.41903067 -597.28504839 1140.06710666 -598.17671204 1138.71478271 C-600.57986715 1135.08111988 -603.04040262 1131.50390974 -605.58203125 1127.96484375 C-609.39167191 1122.57239948 -612.553812 1116.86134387 -615.7265625 1111.078125 C-616.95427566 1108.86189528 -618.18214017 1106.64574939 -619.41015625 1104.4296875 C-619.99909668 1103.36266602 -620.58803711 1102.29564453 -621.19482422 1101.19628906 C-623.007381 1097.92161383 -624.84182363 1094.6600253 -626.68554688 1091.40283203 C-628.41792014 1088.34205042 -630.13692118 1085.27386834 -631.8515625 1082.203125 C-632.34825439 1081.31463867 -632.34825439 1081.31463867 -632.85498047 1080.40820312 C-633.81879463 1078.67684586 -634.77283505 1076.94005899 -635.7265625 1075.203125 C-636.26023437 1074.23375 -636.79390625 1073.264375 -637.34375 1072.265625 C-638.80803793 1069.29152723 -639.94286551 1066.32532033 -641.07421875 1063.21630859 C-642.30045516 1060.04057196 -643.85446306 1057.03638529 -645.4140625 1054.015625 C-646.12625167 1052.60479782 -646.83712358 1051.19330513 -647.546875 1049.78125 C-647.92102539 1049.03810547 -648.29517578 1048.29496094 -648.68066406 1047.52929688 C-649.26025879 1046.3778418 -649.26025879 1046.3778418 -649.8515625 1045.203125 C-650.24827148 1044.41744141 -650.64498047 1043.63175781 -651.05371094 1042.82226562 C-657.13067501 1030.70701347 -662.10513476 1018.47146819 -666.5625 1005.67578125 C-668.8801747 999.03990205 -671.41699453 992.498707 -673.9765625 985.953125 C-677.09525138 977.92154007 -680.10159148 969.86899068 -682.8515625 961.703125 C-683.13016113 960.88553711 -683.40875977 960.06794922 -683.69580078 959.22558594 C-684.97949882 955.33515397 -686.03351027 951.5128366 -686.78515625 947.484375 C-687.89427918 941.59180395 -689.6350372 935.91670087 -691.33514404 930.17214966 C-695.40527771 916.32876039 -698.73193037 902.3786605 -701.7265625 888.265625 C-701.91324493 887.38946533 -702.09992737 886.51330566 -702.29226685 885.6105957 C-708.7932399 854.96515471 -708.7932399 854.96515471 -709.7890625 842.078125 C-709.94064103 840.32143498 -710.09450689 838.5649416 -710.25 836.80859375 C-710.33862305 835.80489746 -710.42724609 834.80120117 -710.51855469 833.76708984 C-710.92418001 829.42594733 -711.37350258 825.09015127 -711.828125 820.75390625 C-711.91653152 819.90795898 -712.00493805 819.06201172 -712.09602356 818.19042969 C-712.45563629 814.7530924 -712.81568442 811.31581289 -713.18112183 807.87908936 C-713.44018349 805.43923239 -713.69498261 802.99895767 -713.94921875 800.55859375 C-714.06319504 799.50276848 -714.06319504 799.50276848 -714.17947388 798.4256134 C-715.55875134 785.07722235 -716.01783551 771.75936637 -716.0546875 758.3515625 C-716.06162306 756.77306086 -716.06861817 755.19455948 -716.07566833 753.61605835 C-716.09481268 748.60341091 -716.0995843 743.5908047 -716.1015625 738.578125 C-716.10229893 737.72668411 -716.10303535 736.87524323 -716.1037941 735.9980011 C-716.12146525 710.94864864 -715.84885904 686.1053216 -712.8515625 661.203125 C-712.71814453 660.04844727 -712.58472656 658.89376953 -712.44726562 657.70410156 C-711.87785939 652.81882267 -711.2744685 647.94182575 -710.59765625 643.0703125 C-710.12925313 639.63977218 -709.75246536 636.21278036 -709.4465332 632.76464844 C-708.38442125 620.89352639 -706.58568246 609.3692442 -704.1640625 597.703125 C-703.98893127 596.84448853 -703.81380005 595.98585205 -703.63336182 595.10119629 C-699.55507775 575.10638483 -694.98644663 555.22743132 -688.80419922 535.76464844 C-687.63512548 532.05170329 -686.67619569 528.42440226 -685.99609375 524.58984375 C-684.65304749 517.5630149 -682.20401433 510.87848954 -679.8515625 504.140625 C-679.61056824 503.44358459 -679.36957397 502.74654419 -679.12127686 502.02838135 C-675.4665336 491.46638711 -671.55143583 481.03330205 -667.2890625 470.69897461 C-665.22889146 465.70314742 -663.32037323 460.70351975 -661.5703125 455.58984375 C-658.81472863 447.78360267 -655.36893756 440.3601131 -651.80322266 432.89526367 C-650.71441582 430.61518859 -649.63579241 428.33050086 -648.55859375 426.04492188 C-647.86255673 424.57524716 -647.16596277 423.10583605 -646.46875 421.63671875 C-646.14993866 420.96273544 -645.83112732 420.28875214 -645.50265503 419.59434509 C-643.78678273 416.00902301 -641.92549774 412.59184119 -639.8515625 409.203125 C-638.8643625 406.85561004 -637.98780662 404.48371712 -637.109375 402.09375 C-635.31217865 397.96354721 -633.07823643 394.11484947 -630.8515625 390.203125 C-629.84623655 388.42063925 -628.8410328 386.63808457 -627.8359375 384.85546875 C-626.75815971 382.95032437 -625.68002334 381.04538281 -624.6015625 379.140625 C-621.04804307 372.86304284 -617.49999703 366.58279095 -613.98168945 360.28540039 C-606.92491763 347.67345973 -606.92491763 347.67345973 -603.8515625 343.203125 C-603.1915625 343.203125 -602.5315625 343.203125 -601.8515625 343.203125 C-601.60639893 342.51049561 -601.36123535 341.81786621 -601.10864258 341.10424805 C-599.6533937 337.74578574 -597.77363514 334.80897173 -595.73828125 331.78515625 C-595.33241791 331.17493118 -594.92655457 330.56470612 -594.50839233 329.93598938 C-593.19062599 327.95890122 -591.86548959 325.98691137 -590.5390625 324.015625 C-590.08715546 323.34150574 -589.63524841 322.66738647 -589.16964722 321.97283936 C-579.01888389 306.83499806 -568.59567133 292.07716651 -556.98046875 278.01953125 C-553.96625279 274.36663941 -551.06164141 270.63616277 -548.1640625 266.890625 C-542.66782825 259.82503452 -536.80583607 253.14447611 -530.4609375 246.8203125 C-527.39234747 243.74253508 -524.42997373 240.57846135 -521.4765625 237.390625 C-520.89640381 236.76607422 -520.31624512 236.14152344 -519.71850586 235.49804688 C-516.89206793 232.44570036 -514.10530326 229.37617356 -511.4140625 226.203125 C-506.43124308 220.4170299 -500.87169815 215.14309755 -495.44311523 209.78027344 C-494.03886578 208.3887331 -492.64552352 206.98620446 -491.25390625 205.58203125 C-485.56004425 199.94371913 -479.52926504 194.63936326 -473.4765625 189.390625 C-471.37536389 187.56534136 -469.38481405 185.73637655 -467.4140625 183.765625 C-465.08420674 181.43576924 -462.71733429 179.17969995 -460.2890625 176.953125 C-459.54527344 176.26734375 -458.80148437 175.5815625 -458.03515625 174.875 C-455.8515625 173.203125 -455.8515625 173.203125 -453.69921875 172.71875 C-453.08949219 172.54859375 -452.47976563 172.3784375 -451.8515625 172.203125 C-451.39305908 171.28200928 -451.39305908 171.28200928 -450.92529297 170.34228516 C-449.78664391 168.07378969 -448.78192535 167.03962929 -446.82421875 165.4609375 C-445.89814819 164.70864868 -445.89814819 164.70864868 -444.95336914 163.94116211 C-444.28039795 163.40885986 -443.60742676 162.87655762 -442.9140625 162.328125 C-442.20822021 161.76295166 -441.50237793 161.19777832 -440.77514648 160.61547852 C-432.31653958 153.89864829 -423.61016041 147.52086285 -414.8515625 141.203125 C-414.14950684 140.69426758 -413.44745117 140.18541016 -412.72412109 139.66113281 C-403.77595999 133.18944728 -394.64469172 127.01474293 -385.4140625 120.953125 C-383.89280762 119.94971069 -383.89280762 119.94971069 -382.34082031 118.92602539 C-380.92494629 118.00358032 -380.92494629 118.00358032 -379.48046875 117.0625 C-378.2131189 116.23443848 -378.2131189 116.23443848 -376.92016602 115.38964844 C-374.8515625 114.203125 -374.8515625 114.203125 -372.8515625 114.203125 C-372.8515625 113.543125 -372.8515625 112.883125 -372.8515625 112.203125 C-370.94276042 110.86344649 -369.05231187 109.68353796 -367.0390625 108.515625 C-366.39396729 108.1347876 -365.74887207 107.7539502 -365.08422852 107.36157227 C-357.03840269 102.65624569 -348.86802806 98.16522243 -340.70703125 93.66357422 C-335.33512829 90.69927414 -329.97824387 87.72307983 -324.69018555 84.61157227 C-318.7850665 81.13905143 -312.78514904 78.362719 -306.45703125 75.75 C-302.65444484 74.11855447 -298.97658476 72.32571291 -295.2890625 70.453125 C-266.75410661 56.03590812 -266.75410661 56.03590812 -255.96728516 53.13061523 C-252.94498382 52.23093471 -250.13849079 51.14092266 -247.2421875 49.8984375 C-224.92583456 40.45696962 -202.06505042 31.8758267 -178.4453125 26.3125 C-174.71797158 25.43205274 -171.02007886 24.45856306 -167.3203125 23.46875 C-152.5113149 19.52450277 -137.66518308 15.97079842 -122.6640625 12.828125 C-121.85990906 12.65913696 -121.05575562 12.49014893 -120.22723389 12.31604004 C-108.23206023 9.80494339 -96.26760773 7.35691526 -84.0390625 6.328125 C-76.8140247 5.68272418 -69.59706252 4.97816298 -62.3828125 4.22265625 C-61.53809891 4.13449646 -60.69338531 4.04633667 -59.82307434 3.95550537 C-56.39145223 3.59709811 -52.95986535 3.23848962 -49.52890015 2.87384033 C-47.08858268 2.61471561 -44.64785032 2.35981967 -42.20703125 2.10546875 C-41.50312256 2.02947952 -40.79921387 1.9534903 -40.07397461 1.87519836 C-26.72560139 0.49596834 -13.40778252 0.03685193 0 0 Z " fill="#010101" transform="translate(938.8515625,222.796875)"/>
<path d="M0 0 C4.13243515 0.38239507 8.25722199 0.65171601 12.40232849 0.85101318 C21.94486162 1.31621219 31.2385571 2.56715568 40.65510559 4.15005493 C41.44475708 4.28033081 42.23440857 4.41060669 43.04798889 4.54483032 C73.25868637 9.54432579 102.99505818 16.64715403 132.25569153 25.67227173 C134.4460503 26.33069885 136.64347025 26.96566442 138.84358215 27.59072876 C148.67761251 30.38930482 158.26776077 33.63080963 167.83430481 37.23672485 C170.11713976 38.09679834 172.40338196 38.94728655 174.69026184 39.79653931 C181.30608791 42.26492217 187.89176481 44.72289606 194.2759552 47.75430298 C196.36551853 48.64084396 198.45794536 49.21202958 200.65510559 49.77505493 C207.52510714 51.73942941 213.69974316 55.18124555 220.01789856 58.45327759 C223.25921617 60.12771678 226.51826653 61.76604068 229.78010559 63.40005493 C230.43180725 63.72812134 231.08350891 64.05618774 231.75495911 64.39419556 C235.46491893 66.25118037 239.19565624 68.0498519 242.95979309 69.79458618 C273.60709921 84.02930779 273.60709921 84.02930779 284.1978302 92.1366272 C286.14632023 93.71276985 286.14632023 93.71276985 289.09260559 94.52505493 C289.09260559 95.18505493 289.09260559 95.84505493 289.09260559 96.52505493 C289.77709778 96.60884399 290.46158997 96.69263306 291.16682434 96.77896118 C294.83044578 97.71320911 297.740465 99.46921944 300.90510559 101.46255493 C301.50258606 101.8228479 302.10006653 102.18314087 302.71565247 102.55435181 C304.21389574 103.48411878 305.65889123 104.49857422 307.09260559 105.52505493 C307.09260559 106.18505493 307.09260559 106.84505493 307.09260559 107.52505493 C308.1710675 107.91987061 308.1710675 107.91987061 309.27131653 108.32266235 C312.17516264 109.56023955 314.60348132 111.02111513 317.23323059 112.76333618 C318.70421204 113.73750488 318.70421204 113.73750488 320.20491028 114.73135376 C321.24034973 115.42640015 322.27578918 116.12144653 323.34260559 116.83755493 C324.40640442 117.5487146 325.47020325 118.25987427 326.5662384 118.99258423 C335.1519933 124.78338265 343.44874382 130.88248024 351.55549622 137.32437134 C352.85610672 138.34031836 354.19713015 139.30420203 355.54573059 140.25552368 C356.31143372 140.88394165 356.31143372 140.88394165 357.09260559 141.52505493 C357.09260559 142.18505493 357.09260559 142.84505493 357.09260559 143.52505493 C357.68573547 143.64203735 358.27886536 143.75901978 358.88996887 143.87954712 C362.48050807 144.93179558 365.10775674 147.44953028 367.96760559 149.77505493 C368.56701965 150.25329712 369.16643372 150.73153931 369.78401184 151.22427368 C381.77796159 160.82463693 381.77796159 160.82463693 384.09260559 163.52505493 C384.09260559 164.18505493 384.09260559 164.84505493 384.09260559 165.52505493 C384.94145325 165.91370728 384.94145325 165.91370728 385.80744934 166.31021118 C388.31967964 167.64577293 390.41988796 169.20388116 392.65510559 170.96255493 C393.41951965 171.55939087 394.18393372 172.15622681 394.97151184 172.77114868 C396.80395059 174.28636967 398.53030696 175.73315331 400.09260559 177.52505493 C400.09260559 178.18505493 400.09260559 178.84505493 400.09260559 179.52505493 C400.63401184 179.73775024 401.17541809 179.95044556 401.73323059 180.16958618 C404.94578012 182.01520652 407.29834584 184.56452201 409.84260559 187.21255493 C413.21858061 190.66682678 416.5760069 194.04218943 420.28010559 197.15005493 C424.22066172 200.49380484 427.52484877 204.30220284 430.93244934 208.17739868 C433.26374689 210.71105117 435.73679351 212.84943856 438.39729309 215.02114868 C441.02757261 217.35446116 443.24971294 220.01022649 445.51448059 222.69302368 C447.05254521 224.52889114 447.05254521 224.52889114 448.70979309 226.11880493 C450.09260559 227.52505493 450.09260559 227.52505493 451.46760559 229.83755493 C453.9567685 233.95424743 457.00890673 237.44135607 460.40510559 240.83755493 C469.22979977 249.66224911 476.62879734 259.55619963 484.09260559 269.52505493 C484.69508118 270.3292688 485.29755676 271.13348267 485.91828918 271.96206665 C492.23809925 280.41918858 498.50681333 288.88419624 504.27229309 297.73208618 C505.61191899 299.78752076 506.96829395 301.82282032 508.35041809 303.84927368 C509.09033997 304.93853149 509.83026184 306.02778931 510.59260559 307.15005493 C511.26291809 308.13232056 511.93323059 309.11458618 512.62385559 310.12661743 C514.09260559 312.52505493 514.09260559 312.52505493 514.09260559 314.52505493 C514.75260559 314.52505493 515.41260559 314.52505493 516.09260559 314.52505493 C517.28181458 316.08218384 517.28181458 316.08218384 518.58869934 318.25161743 C519.30316223 319.42917603 519.30316223 319.42917603 520.03205872 320.63052368 C520.52641418 321.46196899 521.02076965 322.29341431 521.53010559 323.15005493 C522.02059387 323.95829712 522.51108215 324.76653931 523.01643372 325.59927368 C525.56693071 329.83289217 527.89124254 334.09853032 530.09260559 338.52505493 C531.61849317 341.17203953 533.20399662 343.78275517 534.78010559 346.40005493 C538.38942935 352.46983568 541.74175843 358.59375548 544.83918762 364.93838501 C547.99121293 371.38500129 551.32295962 377.73252837 554.65510559 384.08755493 C559.38350799 393.13389875 563.91233877 402.2128179 568.09260559 411.52505493 C568.48834778 412.36681274 568.88408997 413.20857056 569.29182434 414.07583618 C570.99487146 417.74150267 572.37170921 421.3202333 573.46760559 425.21255493 C574.6150357 429.25742003 576.11742369 432.99984688 577.82307434 436.84146118 C581.2473819 444.69607498 584.187143 452.69460895 587.03010559 460.77505493 C587.28962006 461.50917603 587.54913452 462.24329712 587.81651306 462.99966431 C592.31488148 475.77220867 596.08249673 488.64373638 599.38850403 501.7784729 C600.2186654 505.0167931 601.12150122 508.23012781 602.04182434 511.4437561 C612.29324025 547.27882103 619.32654687 584.00957139 621.85432434 621.1925354 C622.08302228 624.39102611 622.34654435 627.58435583 622.62385559 630.77896118 C625.91238917 669.48062868 625.70298962 708.19074705 622.19709778 746.86001587 C622.10118851 747.91869621 622.10118851 747.91869621 622.00334167 748.99876404 C621.87546711 750.40824008 621.74690795 751.81765419 621.61766052 753.227005 C621.24198828 757.44001434 620.96966437 761.64636805 620.76664734 765.87103271 C620.30097604 775.40078557 619.04839255 784.68357231 617.46760559 794.08755493 C617.33732971 794.87720642 617.20705383 795.66685791 617.0728302 796.48043823 C612.37218595 824.8852527 606.28699037 853.29604544 597.26838684 880.66177368 C596.26304348 883.80942015 595.48183705 886.98839929 594.70979309 890.20083618 C593.13142891 896.6107235 591.09245312 902.80014568 588.90510559 909.02505493 C588.51435852 910.14565308 588.12361145 911.26625122 587.72102356 912.42080688 C583.68910605 923.86680102 579.31590234 935.1840494 574.44026184 946.29849243 C573.35870679 948.88795467 572.56638522 951.25280006 571.90510559 953.96255493 C569.89824599 960.87158719 566.4594992 967.08761783 563.16438293 973.4503479 C561.48994374 976.69166551 559.85161984 979.95071587 558.21760559 983.21255493 C557.88953918 983.86425659 557.56147278 984.51595825 557.22346497 985.18740845 C555.36648015 988.89736827 553.56780862 992.62810558 551.82307434 996.39224243 C545.57641432 1009.83813983 538.5485142 1022.71208126 531.09260559 1035.52505493 C530.43260559 1035.52505493 529.77260559 1035.52505493 529.09260559 1035.52505493 C528.56666809 1037.41224243 528.56666809 1037.41224243 528.03010559 1039.33755493 C525.43856416 1047.10001237 520.50696271 1053.51873717 515.83479309 1060.15005493 C512.61717443 1064.73550273 509.5225466 1069.3924834 506.44831848 1074.07485962 C499.51211632 1084.62493169 492.29442998 1094.81180652 484.48860168 1104.73208618 C482.43001602 1107.3760619 480.45330546 1110.07590892 478.46760559 1112.77505493 C475.22021858 1117.11888442 471.8383394 1121.31833377 468.34260559 1125.46255493 C467.89449524 1125.99461548 467.44638489 1126.52667603 466.98469543 1127.07485962 C464.16214302 1130.38304628 461.18376141 1133.46914031 458.09260559 1136.52505493 C456.86858389 1137.84400076 455.65866836 1139.17627152 454.46760559 1140.52505493 C453.89783997 1141.16442993 453.32807434 1141.80380493 452.74104309 1142.46255493 C451.02807694 1144.49558099 451.02807694 1144.49558099 449.75178528 1146.88174438 C448.03395861 1149.61848797 446.20474226 1151.62615143 443.89729309 1153.88052368 C443.0993634 1154.66749634 442.30143372 1155.45446899 441.47932434 1156.26528931 C440.23602356 1157.47668579 440.23602356 1157.47668579 438.96760559 1158.71255493 C437.31699627 1160.32882954 435.6684491 1161.94721367 434.02229309 1163.56802368 C433.29252258 1164.27982788 432.56275208 1164.99163208 431.81086731 1165.7250061 C430.02075921 1167.42366845 430.02075921 1167.42366845 429.09260559 1169.52505493 C428.10260559 1169.19505493 427.11260559 1168.86505493 426.09260559 1168.52505493 C425.01244288 1165.6658007 424.11468582 1162.89390142 423.28010559 1159.96255493 C422.75470356 1158.21548238 422.22600198 1156.46939904 421.69416809 1154.72427368 C421.42765442 1153.84690552 421.16114075 1152.96953735 420.8865509 1152.06558228 C416.78246618 1138.93301596 411.15814225 1126.44888942 404.90510559 1114.21255493 C403.5168321 1111.4953697 402.3849763 1108.74714242 401.29963684 1105.89614868 C399.22355891 1100.66946869 396.71234416 1095.80263145 393.96760559 1090.90005493 C393.48968567 1090.03831665 393.01176575 1089.17657837 392.5193634 1088.28872681 C388.67575939 1081.42243355 384.57780923 1074.74324645 380.34651184 1068.11099243 C378.37869892 1065.0157952 376.56645396 1061.85407043 374.78010559 1058.65005493 C371.63166776 1053.17615223 368.03361505 1048.07833361 364.34260559 1042.96255493 C363.77501526 1042.17574341 363.20742493 1041.38893188 362.62263489 1040.57827759 C359.775486 1036.60486232 359.775486 1036.60486232 356.51741028 1032.97842407 C355.09260559 1031.52505493 355.09260559 1031.52505493 353.40510559 1028.46255493 C349.44814938 1021.29437657 343.88290747 1015.24683252 338.09260559 1009.52505493 C335.96499365 1007.33839007 333.86909724 1005.1235746 331.78010559 1002.90005493 C331.23032043 1002.32771118 330.68053528 1001.75536743 330.11408997 1001.16567993 C326.09260559 996.86943575 326.09260559 996.86943575 326.09260559 993.52505493 C325.53540833 993.29237915 324.97821106 993.05970337 324.40412903 992.81997681 C321.49336914 991.189361 319.47079426 989.162663 317.10823059 986.80630493 C316.17366028 985.87431274 315.23908997 984.94232056 314.27619934 983.98208618 C313.7952179 983.49691528 313.31423645 983.01174438 312.81867981 982.51187134 C311.34055711 981.02299155 309.85200648 979.54513843 308.36213684 978.06802368 C306.96801575 976.6700354 306.96801575 976.6700354 305.54573059 975.24380493 C304.69140442 974.3872229 303.83707825 973.53064087 302.9568634 972.64810181 C301.09260559 970.52505493 301.09260559 970.52505493 301.09260559 968.52505493 C300.3978009 968.31235962 299.70299622 968.09966431 298.98713684 967.88052368 C295.29645826 966.1522302 292.67598654 963.63441682 289.78010559 960.83755493 C288.62714991 959.7482823 287.47350619 958.65973746 286.31916809 957.57192993 C285.48820618 956.78399048 285.48820618 956.78399048 284.64045715 955.98013306 C281.54077374 953.06623509 278.32199687 950.2931046 275.09260559 947.52505493 C274.57440247 947.06614868 274.05619934 946.60724243 273.52229309 946.13442993 C269.93891236 943.02007809 266.24882181 940.76941169 262.09260559 938.52505493 C262.09260559 937.86505493 262.09260559 937.20505493 262.09260559 936.52505493 C261.10260559 936.52505493 260.11260559 936.52505493 259.09260559 936.52505493 C257.75603209 935.19496966 256.42376206 933.86056158 255.09260559 932.52505493 C252.08721642 930.28414039 248.96713666 928.2204129 245.84260559 926.15005493 C244.92600159 925.54081177 244.00939758 924.9315686 243.0650177 924.30386353 C233.18397616 917.8130572 222.99092233 911.88572004 212.72444153 906.03042603 C210.42492039 904.71513406 208.13510869 903.38540631 205.85041809 902.04458618 C204.66036891 901.35048149 203.47027018 900.65646172 202.28010559 899.96255493 C201.32491028 899.40439087 200.36971497 898.84622681 199.38557434 898.27114868 C194.71987414 895.7971653 189.9176621 893.6680018 185.09260559 891.52505493 C184.09140686 891.07960327 183.09020813 890.63415161 182.05867004 890.17520142 C178.92652888 888.78635875 175.7912888 887.40474366 172.65510559 886.02505493 C171.09179504 885.33476196 171.09179504 885.33476196 169.49690247 884.63052368 C152.8578762 877.30646377 136.40199186 871.21276859 118.90510559 866.31607056 C115.22760306 865.28177297 111.55687189 864.22454678 107.88581848 863.16763306 C98.64901234 860.51043491 89.39227144 857.9535391 80.09260559 855.52505493 C82.54486073 852.97270775 84.96180923 851.21086836 88.09260559 849.52505493 C88.75260559 849.52505493 89.41260559 849.52505493 90.09260559 849.52505493 C90.09260559 848.86505493 90.09260559 848.20505493 90.09260559 847.52505493 C92.03401184 846.15786743 92.03401184 846.15786743 94.65510559 844.65005493 C95.57678528 844.11122681 96.49846497 843.57239868 97.44807434 843.01724243 C99.43294734 841.89726978 101.44437044 840.82413982 103.46760559 839.77505493 C108.66029362 836.83740748 113.03999441 832.67855444 117.55940247 828.81997681 C119.87060669 826.86796611 122.23438689 824.98230869 124.59260559 823.08755493 C139.06346632 811.24964451 152.49341512 798.19069805 164.09260559 783.52505493 C165.14326877 782.24937049 166.19685778 780.97609231 167.25276184 779.70474243 C175.62508576 769.59771074 183.55717673 759.51848413 189.09260559 747.52505493 C189.75260559 747.52505493 190.41260559 747.52505493 191.09260559 747.52505493 C191.43485168 746.5756604 191.43485168 746.5756604 191.78401184 745.60708618 C193.96294269 740.4752162 196.71601372 735.63606934 199.37190247 730.73794556 C202.03269127 725.76135844 204.23406556 720.85532319 206.09260559 715.52505493 C206.75260559 715.52505493 207.41260559 715.52505493 208.09260559 715.52505493 C208.1815509 714.57114868 208.27049622 713.61724243 208.36213684 712.63442993 C209.06700524 707.72864431 210.9407769 703.35007793 212.78010559 698.77505493 C218.53449323 683.96555259 223.08062043 669.41038794 226.34260559 653.83755493 C226.58897766 652.66257446 226.83534973 651.48759399 227.08918762 650.27700806 C227.80840944 646.70028366 228.46809512 643.11950271 229.09260559 639.52505493 C229.29128235 638.38246216 229.48995911 637.23986938 229.69465637 636.06265259 C231.5237814 623.78839001 231.46480584 611.46411402 231.46321106 599.07583618 C231.46754893 595.32405961 231.50387496 591.57349686 231.54182434 587.82192993 C231.64338795 566.13667544 229.5352257 544.60022277 223.96760559 523.58755493 C223.67684143 522.46043091 223.38607727 521.33330688 223.08650208 520.17202759 C213.33890344 483.56869708 197.85964248 445.47280864 173.27229309 416.12661743 C172.09260559 414.52505493 172.09260559 414.52505493 172.09260559 412.52505493 C171.10260559 412.19505493 170.11260559 411.86505493 169.09260559 411.52505493 C167.08479309 409.38052368 167.08479309 409.38052368 164.96760559 406.71255493 C163.9118634 405.40351196 163.9118634 405.40351196 162.83479309 404.06802368 C161.09260559 401.52505493 161.09260559 401.52505493 160.53791809 399.26333618 C160.39096497 398.68970337 160.24401184 398.11607056 160.09260559 397.52505493 C159.10260559 397.19505493 158.11260559 396.86505493 157.09260559 396.52505493 C155.61994934 395.02896118 155.61994934 395.02896118 154.03010559 393.08755493 C147.96742011 385.94591695 141.35363946 379.43519877 134.09260559 373.52505493 C133.3771759 372.77868774 132.66174622 372.03232056 131.92463684 371.26333618 C128.53899885 367.98977448 124.8957314 365.28968883 121.09260559 362.52505493 C116.38859642 359.10553535 112.20364865 355.65621729 108.09260559 351.52505493 C106.01001262 349.94573209 103.95379581 348.46453296 101.78010559 347.02505493 C101.1483844 346.60562622 100.51666321 346.18619751 99.86579895 345.75405884 C80.60513538 333.27570155 58.96170858 321.62649172 37.09260559 314.52505493 C35.02731813 313.83028707 32.9622284 313.13493124 30.89729309 312.43911743 C-0.5238576 301.99337077 -31.8440706 296.29929284 -64.96989441 296.27505493 C-66.22169998 296.27404282 -66.22169998 296.27404282 -67.49879456 296.27301025 C-99.37368425 296.31367233 -129.69614966 301.65545972 -159.97624207 311.57144165 C-162.63755681 312.43726669 -165.30607497 313.27089153 -167.98161316 314.09146118 C-177.38477112 317.01969823 -186.016283 320.7307023 -194.70280457 325.35952759 C-197.12729878 326.64131445 -199.56845067 327.88716255 -202.01286316 329.13052368 C-216.65439969 336.61797611 -230.59944133 344.64474417 -243.55192566 354.81021118 C-245.90739441 356.52505493 -245.90739441 356.52505493 -248.90739441 357.52505493 C-248.90739441 358.18505493 -248.90739441 358.84505493 -248.90739441 359.52505493 C-253.29200979 362.52505493 -253.29200979 362.52505493 -255.90739441 362.52505493 C-255.90739441 363.18505493 -255.90739441 363.84505493 -255.90739441 364.52505493 C-257.70036316 366.04067993 -257.70036316 366.04067993 -260.09489441 367.77505493 C-263.97478856 370.70008417 -266.83657735 373.74558778 -269.90739441 377.52505493 C-271.11676068 378.63044854 -272.34810279 379.71205331 -273.59489441 380.77505493 C-279.46327394 385.78273879 -285.61302005 391.0834934 -289.90739441 397.52505493 C-290.56739441 397.52505493 -291.22739441 397.52505493 -291.90739441 397.52505493 C-292.03887878 398.36230103 -292.03887878 398.36230103 -292.17301941 399.21646118 C-293.12191987 402.19944082 -294.67601618 404.04542247 -296.65739441 406.46255493 C-297.33286316 407.29657837 -298.00833191 408.13060181 -298.70426941 408.98989868 C-300.90739441 411.52505493 -300.90739441 411.52505493 -303.27067566 413.77114868 C-306.77535557 417.43159215 -309.51080665 421.46024566 -312.34489441 425.65005493 C-312.89210144 426.44153931 -313.43930847 427.23302368 -314.00309753 428.04849243 C-318.06079302 434.00298048 -321.52047242 440.17116478 -324.90739441 446.52505493 C-325.91559113 448.34862119 -326.92730612 450.17024678 -327.94255066 451.98989868 C-328.44206238 452.89288696 -328.9415741 453.79587524 -329.45622253 454.72622681 C-330.4646011 456.54911503 -331.47762178 458.36944312 -332.49528503 460.18716431 C-339.06491714 472.11108907 -343.54333007 484.71594956 -347.84489441 497.58755493 C-348.10785309 498.37374207 -348.37081177 499.1599292 -348.64173889 499.96994019 C-352.03700438 510.18711093 -355.13350391 520.38200143 -357.46989441 530.90005493 C-357.68444275 531.86306519 -357.89899109 532.82607544 -358.12004089 533.81826782 C-358.78771445 537.04486169 -359.36058232 540.2756583 -359.90739441 543.52505493 C-360.03516266 544.26152252 -360.16293091 544.99799011 -360.29457092 545.7567749 C-362.82116847 560.6733069 -363.40594482 575.36917617 -363.35343933 590.48184204 C-363.34494269 594.19147613 -363.37380338 597.89955626 -363.40544128 601.60903931 C-363.51126562 638.11436018 -355.87782092 674.52727696 -340.84294128 707.86660767 C-339.87815257 710.60814846 -339.72206527 712.64364363 -339.90739441 715.52505493 C-339.24739441 715.52505493 -338.58739441 715.52505493 -337.90739441 715.52505493 C-337.5400116 716.61044556 -337.17262878 717.69583618 -336.79411316 718.81411743 C-334.67119657 724.47772442 -331.67789904 729.6390573 -328.71989441 734.90005493 C-327.618461 736.86408729 -326.52060714 738.83013284 -325.42692566 740.79849243 C-324.94328552 741.65878052 -324.45964539 742.5190686 -323.96134949 743.40542603 C-322.90739441 745.52505493 -322.90739441 745.52505493 -322.90739441 747.52505493 C-322.24739441 747.52505493 -321.58739441 747.52505493 -320.90739441 747.52505493 C-320.27124207 748.77609009 -320.27124207 748.77609009 -319.62223816 750.05239868 C-315.94231665 757.11299534 -311.97673277 763.37504366 -306.90739441 769.52505493 C-306.023947 770.65012317 -305.14400211 771.77794679 -304.26676941 772.90786743 C-299.70758764 778.77741158 -295.16805219 784.57058968 -290.05192566 789.97427368 C-288.90739441 791.52505493 -288.90739441 791.52505493 -288.90739441 794.52505493 C-288.33319763 794.77182983 -287.75900085 795.01860474 -287.16740417 795.27285767 C-284.54482679 796.72594176 -282.83217032 798.40666281 -280.74723816 800.56021118 C-279.56472473 801.76810303 -279.56472473 801.76810303 -278.35832214 803.00039673 C-277.52889099 803.85415894 -276.69945984 804.70792114 -275.84489441 805.58755493 C-269.15351528 812.37875825 -262.50247205 818.74988407 -254.90739441 824.52505493 C-253.00682195 825.99812736 -251.11086101 827.47717169 -249.21989441 828.96255493 C-247.97659363 829.91968384 -247.97659363 829.91968384 -246.70817566 830.89614868 C-246.11391785 831.43368774 -245.51966003 831.97122681 -244.90739441 832.52505493 C-244.90739441 833.18505493 -244.90739441 833.84505493 -244.90739441 834.52505493 C-243.91739441 834.52505493 -242.92739441 834.52505493 -241.90739441 834.52505493 C-241.90739441 835.18505493 -241.90739441 835.84505493 -241.90739441 836.52505493 C-241.35309753 836.79962524 -240.79880066 837.07419556 -240.22770691 837.35708618 C-232.85274286 841.06939974 -225.87992894 845.05005072 -219.19645691 849.91177368 C-216.83210954 851.57811406 -214.40353118 853.06530004 -211.90739441 854.52505493 C-214.90622389 856.52427458 -216.87677411 857.16133607 -220.33317566 858.00552368 C-221.42928162 858.27904663 -222.52538757 858.55256958 -223.65470886 858.8343811 C-224.83122009 859.12417847 -226.00773132 859.41397583 -227.21989441 859.71255493 C-237.98357592 862.42662494 -248.54124465 865.51505602 -259.08708191 868.97036743 C-263.1471433 870.29833593 -267.22183778 871.47147025 -271.34489441 872.58755493 C-282.0147128 875.58526581 -292.08325523 880.0307788 -302.07121277 884.78042603 C-306.21690953 886.75109363 -310.39441675 888.6265864 -314.60368347 890.45742798 C-339.68778287 901.40181514 -365.52149892 915.53000082 -386.76676941 932.85708618 C-388.90739441 934.52505493 -388.90739441 934.52505493 -390.90739441 934.52505493 C-390.90739441 935.18505493 -390.90739441 935.84505493 -390.90739441 936.52505493 C-391.89739441 936.85505493 -392.88739441 937.18505493 -393.90739441 937.52505493 C-394.23739441 938.18505493 -394.56739441 938.84505493 -394.90739441 939.52505493 C-396.53722504 940.44183466 -398.1683208 941.35644027 -399.80583191 942.25942993 C-405.84766423 945.89800553 -410.97057952 950.52972964 -415.90739441 955.52505493 C-418.07321589 957.63185198 -420.26730582 959.70680144 -422.46989441 961.77505493 C-423.03385925 962.31646118 -423.5978241 962.85786743 -424.17887878 963.41567993 C-428.48039795 967.44049318 -428.48039795 967.44049318 -430.97355652 967.93423462 C-433.06392819 968.32632064 -433.06392819 968.32632064 -433.86247253 970.27603149 C-434.20729675 971.01820923 -434.55212097 971.76038696 -434.90739441 972.52505493 C-436.42974157 974.23296879 -438.01047993 975.88951051 -439.62614441 977.50942993 C-440.5581366 978.44400024 -441.49012878 979.37857056 -442.45036316 980.34146118 C-442.93553406 980.82244263 -443.42070496 981.30342407 -443.920578 981.79898071 C-445.4094578 983.27710341 -446.88731092 984.76565404 -448.36442566 986.25552368 C-449.76241394 987.64964478 -449.76241394 987.64964478 -451.18864441 989.07192993 C-452.04522644 989.9262561 -452.90180847 990.78058228 -453.78434753 991.66079712 C-455.90739441 993.52505493 -455.90739441 993.52505493 -457.90739441 993.52505493 C-458.02131531 994.12414673 -458.13523621 994.72323853 -458.25260925 995.34048462 C-459.3142218 998.88235974 -462.01768855 1001.17237213 -464.53239441 1003.77505493 C-465.6346218 1004.94239623 -466.7361878 1006.11036241 -467.83708191 1007.27896118 C-468.36914246 1007.8398645 -468.901203 1008.40076782 -469.4493866 1008.97866821 C-479.8029853 1019.2580958 -479.8029853 1019.2580958 -486.90739441 1031.52505493 C-488.22228435 1032.87658 -489.55785865 1034.20812335 -490.90739441 1035.52505493 C-493.33829481 1038.66960104 -495.57628352 1041.94948447 -497.84489441 1045.21255493 C-498.45268738 1046.07300415 -499.06048035 1046.93345337 -499.68669128 1047.81997681 C-503.02097819 1052.59300671 -506.06000985 1057.40569119 -508.82316589 1062.53018188 C-510.264434 1065.18197241 -511.85893357 1067.72346595 -513.46989441 1070.27505493 C-517.15820571 1076.2255305 -520.6791083 1082.26208491 -524.15739441 1088.33755493 C-524.66472107 1089.22088501 -525.17204773 1090.10421509 -525.69474792 1091.01431274 C-529.39798504 1097.50950319 -533.06626606 1104.01843033 -535.71989441 1111.02505493 C-537.49165068 1115.55210146 -539.39375286 1120.01076453 -541.34489441 1124.46255493 C-541.64798523 1125.15437866 -541.95107605 1125.84620239 -542.26335144 1126.55899048 C-543.99944693 1130.50504328 -545.77972317 1134.42709344 -547.59489441 1138.33755493 C-551.64811142 1147.23873738 -554.48489313 1156.27378379 -556.88005066 1165.75161743 C-557.38858582 1167.12446899 -557.38858582 1167.12446899 -557.90739441 1168.52505493 C-558.89739441 1168.85505493 -559.88739441 1169.18505493 -560.90739441 1169.52505493 C-561.42173035 1168.90243774 -561.42173035 1168.90243774 -561.94645691 1168.26724243 C-566.6681964 1162.70815012 -571.77844069 1157.60307931 -577.01921082 1152.53823853 C-580.2303038 1149.39060936 -582.72722744 1146.4994587 -584.90739441 1142.52505493 C-585.83257455 1141.33192644 -586.7897007 1140.16262826 -587.78239441 1139.02505493 C-588.25419128 1138.47849243 -588.72598816 1137.93192993 -589.21208191 1137.36880493 C-590.52529874 1135.94060598 -591.88525053 1134.55530707 -593.26286316 1133.18911743 C-604.04579933 1122.32654363 -613.01229245 1109.9328561 -621.90739441 1097.52505493 C-622.71273621 1096.40381226 -622.71273621 1096.40381226 -623.53434753 1095.25991821 C-628.97216492 1087.67089488 -634.31042088 1080.0142875 -639.53239441 1072.27505493 C-639.94650574 1071.6669397 -640.36061707 1071.05882446 -640.78727722 1070.43228149 C-642.92284391 1067.23522842 -644.63722499 1064.15801261 -645.90739441 1060.52505493 C-646.56739441 1060.52505493 -647.22739441 1060.52505493 -647.90739441 1060.52505493 C-649.99807926 1057.85112999 -651.65547171 1054.86658183 -653.40739441 1051.96255493 C-654.15569519 1050.76276001 -654.15569519 1050.76276001 -654.91911316 1049.53872681 C-657.72877521 1044.9250056 -659.71774476 1040.80058464 -660.90739441 1035.52505493 C-661.56739441 1035.52505493 -662.22739441 1035.52505493 -662.90739441 1035.52505493 C-671.1867829 1021.33323469 -678.74546967 1006.98091996 -685.69352722 992.09487915 C-687.43186352 988.41472472 -689.25591052 984.78068254 -691.09489441 981.15005493 C-693.86139065 975.65666464 -696.57313052 970.13972015 -699.21989441 964.58755493 C-699.54562439 963.91353638 -699.87135437 963.23951782 -700.20695496 962.54507446 C-702.18120832 958.37064538 -703.73703348 954.18127693 -705.14982605 949.78701782 C-706.4104153 946.02312501 -707.95686364 942.3804734 -709.46989441 938.71255493 C-716.72902364 920.85229908 -724.17703912 902.3754599 -728.65739441 883.58755493 C-730.11439673 877.57769312 -731.69173767 871.60898458 -733.33049011 865.64614868 C-741.74265137 834.94395375 -750.11222691 802.74669066 -752.37223816 770.84927368 C-752.44901794 769.78877808 -752.52579773 768.72828247 -752.60490417 767.63565063 C-752.68410095 766.50602905 -752.76329773 765.37640747 -752.84489441 764.21255493 C-753.58078383 753.78947354 -753.58078383 753.78947354 -754.44645691 743.37661743 C-757.83084289 704.99630666 -757.48894956 666.54138622 -754.0118866 628.19009399 C-753.94794708 627.4843071 -753.88400757 626.7785202 -753.81813049 626.05134583 C-753.69025593 624.64186978 -753.56169677 623.23245568 -753.43244934 621.82310486 C-753.0567771 617.61009552 -752.78445319 613.40374181 -752.58143616 609.17907715 C-752.11576486 599.6493243 -750.86318137 590.36653755 -749.28239441 580.96255493 C-749.15211853 580.17290344 -749.02184265 579.38325195 -748.88761902 578.56967163 C-744.18697477 550.16485716 -738.10177919 521.75406442 -729.08317566 494.38833618 C-728.0778323 491.24068972 -727.29662586 488.06171057 -726.52458191 484.84927368 C-724.94622129 478.4394008 -722.90736388 472.24991131 -720.71989441 466.02505493 C-720.32842224 464.90300659 -719.93695007 463.78095825 -719.53361511 462.62490845 C-715.11794336 450.09471723 -710.34322774 437.70613039 -704.78092957 425.63735962 C-703.85586397 423.40044863 -703.20763237 421.17770333 -702.59489441 418.83755493 C-701.01965328 413.33268001 -698.47423367 408.42080674 -695.85661316 403.35317993 C-693.79844936 399.35895556 -691.9161819 395.29113696 -690.03239441 391.21255493 C-686.95506082 384.59380964 -683.65062297 378.12731665 -680.19523621 371.69863892 C-677.81469007 367.26573843 -675.548959 362.79839659 -673.34489441 358.27505493 C-670.50725307 352.54079125 -667.29090996 347.15645339 -663.88005066 341.74771118 C-661.90527712 338.521596 -660.11008442 335.24483332 -658.34489441 331.90005493 C-651.93119443 319.82288134 -651.93119443 319.82288134 -647.90739441 314.52505493 C-647.24739441 314.52505493 -646.58739441 314.52505493 -645.90739441 314.52505493 C-645.68696472 313.86892212 -645.46653503 313.21278931 -645.23942566 312.53677368 C-643.45076751 308.49262285 -641.06828262 304.99302793 -638.59489441 301.33755493 C-638.06436462 300.54872925 -637.53383484 299.75990356 -636.98722839 298.94717407 C-624.72057563 280.82316315 -611.73226808 263.09386885 -597.45036316 246.50161743 C-595.06983701 243.71519511 -592.76364949 240.88298317 -590.46989441 238.02505493 C-583.03010963 228.88283291 -574.86734662 220.39876989 -566.47770691 212.13052368 C-562.69170813 208.38686036 -558.95730365 204.66722623 -555.53239441 200.58755493 C-551.63634582 196.02519875 -547.17428238 192.09548188 -542.72380066 188.09146118 C-540.49739787 186.06268638 -538.36911283 184.00630651 -536.28239441 181.83755493 C-533.90739441 179.52505493 -533.90739441 179.52505493 -531.90739441 179.52505493 C-531.65731628 178.93853149 -531.40723816 178.35200806 -531.14958191 177.74771118 C-529.74299808 175.23089924 -528.23045735 173.81639292 -526.03239441 171.96255493 C-525.0153241 171.09437134 -525.0153241 171.09437134 -523.97770691 170.20864868 C-518.21829928 165.52505493 -518.21829928 165.52505493 -515.90739441 165.52505493 C-515.70243347 164.97462524 -515.49747253 164.42419556 -515.28630066 163.85708618 C-513.38299691 160.63818438 -510.70473467 158.54596703 -507.84489441 156.21255493 C-507.26433289 155.73197632 -506.68377136 155.25139771 -506.08561707 154.7562561 C-504.36567562 153.33817127 -502.63717551 151.93110748 -500.90739441 150.52505493 C-499.99860535 149.77482056 -499.08981628 149.02458618 -498.15348816 148.25161743 C-492.29833829 143.52505493 -492.29833829 143.52505493 -488.90739441 143.52505493 C-488.65538269 142.92668823 -488.40337097 142.32832153 -488.14372253 141.71182251 C-486.74229224 139.23302884 -485.44253638 138.16895177 -483.12614441 136.53677368 C-481.99462952 135.73010254 -481.99462952 135.73010254 -480.84025574 134.90713501 C-480.0374115 134.34792358 -479.23456726 133.78871216 -478.40739441 133.21255493 C-477.58585876 132.63078491 -476.76432312 132.04901489 -475.91789246 131.44961548 C-473.58612773 129.80074613 -471.24721992 128.16245277 -468.90739441 126.52505493 C-467.95477722 125.84700806 -467.00216003 125.16896118 -466.02067566 124.47036743 C-463.66478079 122.79844204 -461.29196545 121.1558406 -458.90739441 119.52505493 C-458.31797058 119.1212561 -457.72854675 118.71745728 -457.1212616 118.30142212 C-455.11662879 116.93223507 -453.10657904 115.57135624 -451.09489441 114.21255493 C-450.45978943 113.77918823 -449.82468445 113.34582153 -449.17033386 112.89932251 C-445.84628236 110.66965239 -442.72167662 108.84007413 -438.90739441 107.52505493 C-438.90739441 106.86505493 -438.90739441 106.20505493 -438.90739441 105.52505493 C-436.68736309 103.88080714 -434.48439573 102.37751609 -432.15739441 100.90005493 C-431.52317566 100.47982056 -430.88895691 100.05958618 -430.23551941 99.62661743 C-426.77267112 97.40462312 -425.11832112 96.52505493 -420.90739441 96.52505493 C-420.90739441 95.86505493 -420.90739441 95.20505493 -420.90739441 94.52505493 C-420.29895691 94.19634399 -419.69051941 93.86763306 -419.06364441 93.52896118 C-413.17851479 90.3354129 -407.31597919 87.10193065 -401.46989441 83.83755493 C-400.78411316 83.45736206 -400.09833191 83.07716919 -399.39176941 82.68545532 C-398.73821472 82.31928101 -398.08466003 81.95310669 -397.41130066 81.57583618 C-396.54227112 81.0911084 -396.54227112 81.0911084 -395.65568542 80.59658813 C-393.82770654 79.52200155 -393.82770654 79.52200155 -391.97502136 78.01187134 C-389.79752103 76.44604574 -387.83561327 75.60101983 -385.32145691 74.68521118 C-379.72924175 72.52704551 -374.55270737 69.80347116 -369.28239441 66.96255493 C-360.98689726 62.56841557 -352.61972389 58.39427083 -344.09489441 54.46255493 C-343.12406921 54.01001343 -342.15324402 53.55747192 -341.15299988 53.09121704 C-336.84892431 51.12944749 -332.64057216 49.36983457 -328.08317566 48.09146118 C-323.9890769 46.93947875 -320.19355666 45.41624361 -316.29801941 43.70864868 C-308.53669436 40.31123452 -300.64735065 37.3986803 -292.65739441 34.58755493 C-291.92327332 34.32804047 -291.18915222 34.068526 -290.43278503 33.80114746 C-277.66024067 29.30277904 -264.78871296 25.5351638 -251.65397644 22.22915649 C-248.41565624 21.39899512 -245.20232154 20.49615931 -241.98869324 19.57583618 C-205.82649275 9.23083588 -168.84710515 2.23991732 -131.32585144 -0.23666382 C-128.0569719 -0.46451887 -124.79334519 -0.72700048 -121.52848816 -1.00619507 C-80.9275862 -4.46521046 -40.54009369 -3.85621651 0 0 Z " fill="#FEFEFE" transform="translate(1025.9073944091797,272.4749450683594)"/>
<path d="M0 0 C3.17448932 0.00108962 6.34895954 -0.00386365 9.52344465 -0.00860542 C17.03829865 -0.01960727 24.55310264 -0.02019238 32.06796074 -0.01409125 C39.72219759 -0.00807067 47.37624972 -0.02033545 55.03045511 -0.04166132 C61.68868472 -0.05950386 68.34685679 -0.06524342 75.00510931 -0.06202358 C78.94335253 -0.06024483 82.88146428 -0.0624914 86.81968498 -0.07673812 C148.8717814 -0.28173979 213.68489494 10.6511225 268.9986248 39.92658257 C271.87769889 41.33805065 274.74254577 42.35701367 277.8033123 43.30158257 C277.8033123 43.96158257 277.8033123 44.62158257 277.8033123 45.30158257 C278.66182793 45.40341851 279.52034355 45.50525445 280.4048748 45.61017632 C284.08826985 46.3595567 286.85354438 47.62781488 290.1783123 49.36408257 C291.23792168 49.91193414 292.29753105 50.4597857 293.3892498 51.02423882 C294.18589043 51.44576226 294.98253105 51.8672857 295.8033123 52.30158257 C295.8033123 52.96158257 295.8033123 53.62158257 295.8033123 54.30158257 C296.60382011 54.51427789 297.40432793 54.7269732 298.22909355 54.94611382 C302.90196737 56.718231 306.81323681 59.27384476 310.9908123 61.98908257 C312.69912894 63.08676481 314.40746215 64.18442125 316.1158123 65.28205132 C316.9304998 65.80847222 317.7451873 66.33489312 318.5845623 66.87726617 C321.19805048 68.55498294 323.84468053 70.17598638 326.4908123 71.80158257 C331.30526655 74.87155894 335.90260664 78.21920164 340.4908123 81.61408257 C341.21163994 82.1425982 341.93246758 82.67111382 342.67513847 83.21564507 C343.34005302 83.71451226 344.00496758 84.21337945 344.69003105 84.72736382 C345.29033134 85.17507134 345.89063164 85.62277886 346.50912285 86.08405328 C347.14974663 86.68673028 347.14974663 86.68673028 347.8033123 87.30158257 C347.8033123 87.96158257 347.8033123 88.62158257 347.8033123 89.30158257 C348.37178886 89.5722857 348.94026543 89.84298882 349.52596855 90.12189507 C355.98360605 93.46701776 363.10889824 97.86388188 367.6158123 103.61408257 C369.99461905 106.53661658 372.58050084 108.81511016 375.43221855 111.26252007 C378.24851283 113.68444036 381.03477881 116.13791481 383.8033123 118.61408257 C385.2264373 119.87671929 385.2264373 119.87671929 386.6783123 121.16486382 C388.8033123 123.30158257 388.8033123 123.30158257 388.8033123 125.30158257 C389.7933123 125.63158257 390.7833123 125.96158257 391.8033123 126.30158257 C393.3814373 127.90314507 393.3814373 127.90314507 395.0533123 129.92658257 C398.0298604 133.45528351 401.16428747 136.68667999 404.51815605 139.85627007 C405.8033123 141.30158257 405.8033123 141.30158257 405.8033123 143.30158257 C406.3911248 143.55552789 406.9789373 143.8094732 407.5845623 144.07111382 C413.80558753 147.52115423 417.48163893 154.25139179 420.8033123 160.30158257 C421.78561728 161.31896988 422.77800827 162.32754374 423.8033123 163.30158257 C423.8033123 163.96158257 423.8033123 164.62158257 423.8033123 165.30158257 C424.7933123 165.63158257 425.7833123 165.96158257 426.8033123 166.30158257 C428.79606261 168.69594871 430.62314569 171.0825035 432.4283123 173.61408257 C432.98736259 174.39299859 433.54641289 175.17191461 434.1224041 175.97443414 C443.991225 189.99946686 452.59121538 204.95060841 461.15878105 219.79377007 C461.79839775 220.90091363 462.43801445 222.00805718 463.09701347 223.14875054 C465.20696357 227.04743356 466.85444569 231.03875791 468.47909355 235.15705132 C469.69179829 238.03677792 471.04752655 240.79393882 472.49056816 243.56403375 C481.20680141 260.33911287 487.65843523 277.92908598 492.9283123 296.05158257 C493.12657616 296.72883386 493.32484001 297.40608514 493.52911186 298.10385919 C497.048151 310.21319566 497.048151 310.21319566 496.8033123 315.30158257 C495.4833123 315.96158257 494.1633123 316.62158257 492.8033123 317.30158257 C492.8033123 317.96158257 492.8033123 318.62158257 492.8033123 319.30158257 C491.51034355 320.64142632 491.51034355 320.64142632 489.6158123 322.23908257 C488.89651543 322.8500982 488.17721855 323.46111382 487.4361248 324.09064507 C486.56729668 324.82025445 485.69846855 325.54986382 484.8033123 326.30158257 C483.69586899 327.24610717 482.58914054 328.19147036 481.4829998 329.13752007 C480.31922322 330.13004292 479.15516052 331.12223039 477.9908123 332.11408257 C477.42789482 332.59417779 476.86497734 333.074273 476.28500175 333.56891656 C469.51576078 339.30158257 469.51576078 339.30158257 465.8033123 339.30158257 C465.41876884 340.20348321 465.41876884 340.20348321 465.02645683 341.12360406 C463.67186596 343.53564103 462.47760702 344.56257259 460.2329998 346.14923882 C459.50959404 346.66639459 458.78618828 347.18355035 458.04086113 347.7163775 C457.26122002 348.26012017 456.4815789 348.80386285 455.6783123 349.36408257 C454.87224541 349.93554009 454.06617851 350.50699761 453.23568535 351.09577203 C450.76545218 352.84161652 448.28615823 354.57373367 445.8033123 356.30158257 C445.08643242 356.80206109 444.36955254 357.30253961 443.63094902 357.81818414 C439.69990571 360.55746318 435.75111747 363.26924171 431.7852459 365.95783257 C430.41700952 366.88549616 429.05023603 367.81531979 427.68465996 368.74689507 C425.60269574 370.16617895 423.51630442 371.57868587 421.4283123 372.98908257 C420.79127373 373.42373834 420.15423515 373.8583941 419.49789238 374.30622125 C415.03331642 377.30158257 415.03331642 377.30158257 412.8033123 377.30158257 C412.8033123 377.96158257 412.8033123 378.62158257 412.8033123 379.30158257 C410.5376873 381.02814507 410.5376873 381.02814507 407.5533123 382.92658257 C406.57878105 383.5582232 405.6042498 384.18986382 404.6001873 384.84064507 C401.8033123 386.30158257 401.8033123 386.30158257 397.8033123 386.30158257 C397.8033123 386.96158257 397.8033123 387.62158257 397.8033123 388.30158257 C396.97573418 388.69990289 396.14815605 389.0982232 395.2954998 389.50861382 C391.39757859 391.50989552 387.67987702 393.7299318 383.9283123 395.98908257 C377.85853155 399.59840634 371.73461176 402.95073541 365.38998222 406.04816461 C358.94336595 409.20018992 352.59583887 412.5319366 346.2408123 415.86408257 C337.19446848 420.59248497 328.11554933 425.12131576 318.8033123 429.30158257 C317.96155449 429.69732476 317.11979668 430.09306695 316.25253105 430.50080132 C312.58686457 432.20384845 309.00813393 433.58068619 305.1158123 434.67658257 C301.07094721 435.82401268 297.32852035 437.32640067 293.48690605 439.03205132 C285.63229225 442.45635888 277.63375829 445.39611998 269.5533123 448.23908257 C268.45213066 448.62835427 268.45213066 448.62835427 267.32870293 449.02549005 C254.55615856 453.52385846 241.68463085 457.29147371 228.54989433 460.59748101 C225.31157413 461.42764239 222.09823943 462.3304782 218.88461113 463.25080132 C183.04954621 473.50221723 146.31879584 480.53552385 109.13583183 483.06330132 C105.93734112 483.29199927 102.74401141 483.55552134 99.54940605 483.83283257 C60.84773855 487.12136615 22.13762019 486.9119666 -16.53164864 483.40607476 C-17.23743553 483.34213525 -17.94322243 483.27819573 -18.6703968 483.21231866 C-20.07987285 483.0844441 -21.48928695 482.95588493 -22.89863777 482.82663751 C-27.11164711 482.45096526 -31.31800082 482.17864136 -35.54266548 481.97562432 C-45.07241833 481.50995302 -54.35520508 480.25736953 -63.7591877 478.67658257 C-64.54883919 478.5463067 -65.33849068 478.41603082 -66.152071 478.28180718 C-96.36276848 473.28231171 -126.09914029 466.17948348 -155.35977364 457.15436578 C-157.5501324 456.49593865 -159.74755236 455.86097308 -161.94766426 455.23590875 C-171.78169462 452.43733269 -181.37184288 449.19582787 -190.93838692 445.58991265 C-193.22122186 444.72983916 -195.50746407 443.87935096 -197.79434395 443.0300982 C-204.35141675 440.58343851 -210.83487888 438.07728254 -217.18911934 435.13532281 C-219.3509631 434.23751222 -221.49461779 433.63315084 -223.75528145 433.02814507 C-231.30532027 430.86349956 -238.24186009 427.14315364 -245.2591877 423.67658257 C-246.74510761 422.94911519 -248.23119253 422.22198474 -249.71743965 421.49518609 C-258.46265716 417.20607058 -267.14245531 412.81439742 -275.7045002 408.16877007 C-279.18368992 406.30853217 -282.70731155 404.58069087 -286.2591877 402.86408257 C-292.41946043 399.82682514 -298.1879958 396.31219165 -303.95669746 392.58893609 C-306.68680861 390.8315323 -309.10183994 389.33319849 -312.1966877 388.30158257 C-312.1966877 387.64158257 -312.1966877 386.98158257 -312.1966877 386.30158257 C-312.88117989 386.21779351 -313.56567207 386.13400445 -314.27090645 386.04767632 C-317.93452789 385.1134284 -320.84454711 383.35741806 -324.0091877 381.36408257 C-324.60666817 381.00378961 -325.20414864 380.64349664 -325.81973457 380.2722857 C-327.31797785 379.34251873 -328.76297333 378.32806328 -330.1966877 377.30158257 C-330.1966877 376.64158257 -330.1966877 375.98158257 -330.1966877 375.30158257 C-330.88246895 375.06181695 -331.5682502 374.82205132 -332.2748127 374.57502007 C-335.76695201 373.05304492 -338.81107631 371.06189152 -341.9466877 368.92658257 C-342.59428047 368.48959039 -343.24187325 368.0525982 -343.90909004 367.60236382 C-354.35216586 360.52231243 -364.69605958 353.28919163 -374.7591877 345.67658257 C-375.31364571 345.26279351 -375.86810371 344.84900445 -376.43936348 344.42267632 C-377.73085864 343.43120863 -378.97016939 342.37238638 -380.1966877 341.30158257 C-380.1966877 340.64158257 -380.1966877 339.98158257 -380.1966877 339.30158257 C-380.78981758 339.18460015 -381.38294746 339.06761773 -381.99405098 338.94709039 C-385.58459018 337.89484192 -388.21183884 335.37710723 -391.0716877 333.05158257 C-391.67110176 332.57334039 -392.27051582 332.0950982 -392.88809395 331.60236382 C-404.8820437 322.00200058 -404.8820437 322.00200058 -407.1966877 319.30158257 C-407.1966877 318.64158257 -407.1966877 317.98158257 -407.1966877 317.30158257 C-408.8466877 316.64158257 -410.4966877 315.98158257 -412.1966877 315.30158257 C-407.34374179 295.35665839 -401.74026773 275.92976051 -393.5091877 257.11408257 C-393.23955208 256.49559442 -392.96991646 255.87710626 -392.69211006 255.23987603 C-389.62631499 248.25412125 -386.27848259 241.53338413 -382.54849434 234.88190484 C-381.25635554 232.41547628 -380.23999221 229.9780403 -379.2670002 227.37189507 C-376.91138689 221.22207043 -373.51144576 215.77189936 -370.0716877 210.17658257 C-369.06646065 208.52626031 -369.06646065 208.52626031 -368.04092598 206.8425982 C-366.70440047 204.65199402 -365.36448529 202.46345372 -364.02090645 200.27716851 C-362.48096458 197.76528261 -360.95865753 195.24440313 -359.4466877 192.71564507 C-353.76378396 183.29708633 -347.31619227 174.59211026 -340.49405098 165.9675982 C-339.43905464 164.61281931 -338.43309256 163.21996451 -337.44278145 161.81720757 C-337.03157051 161.31705132 -336.62035957 160.81689507 -336.1966877 160.30158257 C-335.5366877 160.30158257 -334.8766877 160.30158257 -334.1966877 160.30158257 C-333.9285627 159.74470757 -333.6604377 159.18783257 -333.3841877 158.61408257 C-330.4285775 152.85842062 -326.85450266 147.82471373 -322.1966877 143.30158257 C-321.5366877 143.30158257 -320.8766877 143.30158257 -320.1966877 143.30158257 C-319.87184395 142.48367242 -319.87184395 142.48367242 -319.5404377 141.64923882 C-317.74531034 138.51298433 -315.28346309 136.2155691 -312.6966877 133.73908257 C-309.91297014 131.05247144 -307.35775548 128.54318425 -305.1966877 125.30158257 C-304.5366877 125.30158257 -303.8766877 125.30158257 -303.1966877 125.30158257 C-302.99559395 124.76404351 -302.7945002 124.22650445 -302.5873127 123.67267632 C-300.5975707 120.28005443 -297.85846111 117.97295339 -294.9466877 115.36408257 C-294.10557442 114.59547906 -294.10557442 114.59547906 -293.24746895 113.8113482 C-290.52373992 111.33608868 -287.76328766 108.92074145 -284.92715645 106.57502007 C-282.17389852 104.35269539 -282.17389852 104.35269539 -279.7591877 101.86408257 C-277.75659313 99.861488 -275.74647309 97.93466253 -273.6341877 96.05158257 C-273.07602364 95.55142632 -272.51785957 95.05127007 -271.94278145 94.53595757 C-270.03270642 93.18565845 -268.48136452 92.72152317 -266.1966877 92.30158257 C-266.1966877 91.64158257 -266.1966877 90.98158257 -266.1966877 90.30158257 C-265.5779377 90.21908257 -264.9591877 90.13658257 -264.3216877 90.05158257 C-262.03355835 89.52365544 -262.03355835 89.52365544 -261.28433418 87.42780328 C-260.0388928 84.99311215 -258.90187557 84.0772559 -256.66934395 82.53205132 C-255.96575752 82.03962945 -255.2621711 81.54720757 -254.53726387 81.03986382 C-253.78549873 80.52810601 -253.0337336 80.0163482 -252.2591877 79.48908257 C-251.48357491 78.95283257 -250.70796211 78.41658257 -249.9088459 77.86408257 C-244.09302503 73.86294314 -238.22486124 69.9763928 -232.1966877 66.30158257 C-231.41229317 65.8209234 -230.62789864 65.34026422 -229.81973457 64.84503961 C-227.09509259 63.17826429 -224.36551834 61.51987205 -221.6341877 59.86408257 C-220.73982002 59.31880914 -219.84545235 58.7735357 -218.92398262 58.21173882 C-218.08456123 57.70642632 -217.24513985 57.20111382 -216.38028145 56.68048882 C-215.62287666 56.22230767 -214.86547188 55.76412652 -214.08511543 55.29206109 C-212.1966877 54.30158257 -212.1966877 54.30158257 -210.1966877 54.30158257 C-210.1966877 53.64158257 -210.1966877 52.98158257 -210.1966877 52.30158257 C-207.95142824 51.12492254 -205.70124628 49.96017518 -203.4466877 48.80158257 C-202.81246895 48.46771539 -202.1782502 48.1338482 -201.5248127 47.78986382 C-198.07657777 46.02982724 -196.14828701 45.30158257 -192.1966877 45.30158257 C-192.1966877 44.64158257 -192.1966877 43.98158257 -192.1966877 43.30158257 C-191.69782051 43.08099175 -191.19895332 42.86040093 -190.68496895 42.63312554 C-186.1168117 40.60841491 -181.55945242 38.56152193 -177.0091877 36.49689507 C-157.67868565 27.76015259 -138.65842975 20.8227367 -118.1966877 15.30158257 C-117.17768379 15.02169488 -116.15867989 14.74180718 -115.10879707 14.45343804 C-100.81167215 10.55718869 -86.48660473 7.45465536 -71.8841877 4.98908257 C-71.16907021 4.86597711 -70.45395271 4.74287164 -69.71716499 4.6160357 C-46.55587711 0.66909276 -23.43910466 -0.01600979 0 0 Z " fill="#FEFEFE" transform="translate(917.1966876983643,1164.6984174251556)"/>
<path d="M0 0 C1.05805344 0.00140488 1.05805344 0.00140488 2.13748169 0.00283813 C31.8151876 0.08797067 63.41475243 4.52512764 90.46557617 17.34790039 C92.68917734 18.36298983 92.68917734 18.36298983 96.25 19.0625 C107.58579488 21.68015909 118.48462616 29.41139457 128.53076172 35.10693359 C130.17176804 36.03690721 131.82142015 36.95159491 133.47265625 37.86328125 C134.12105469 38.30027344 134.76945312 38.73726562 135.4375 39.1875 C135.4375 39.8475 135.4375 40.5075 135.4375 41.1875 C136.1802417 41.29779541 136.9229834 41.40809082 137.68823242 41.52172852 C140.55782705 42.21663879 142.08722168 43.07985464 144.42578125 44.83984375 C145.13154297 45.36900391 145.83730469 45.89816406 146.56445312 46.44335938 C147.28568359 46.99830078 148.00691406 47.55324219 148.75 48.125 C149.49056641 48.67607422 150.23113281 49.22714844 150.99414062 49.79492188 C155.02229693 52.85038052 155.02229693 52.85038052 156.4375 54.1875 C156.4375 54.8475 156.4375 55.5075 156.4375 56.1875 C157.02917969 56.46150635 157.62085938 56.7355127 158.23046875 57.01782227 C160.35545501 58.14401797 161.94729358 59.32309333 163.75 60.90234375 C164.35070313 61.42376953 164.95140625 61.94519531 165.5703125 62.48242188 C166.18648437 63.02447266 166.80265625 63.56652344 167.4375 64.125 C168.66568734 65.19773685 169.89482824 66.26938313 171.125 67.33984375 C171.69734375 67.83983887 172.2696875 68.33983398 172.859375 68.85498047 C174.14928593 69.94414103 175.50464696 70.95536697 176.875 71.94140625 C177.6484375 72.55822266 177.6484375 72.55822266 178.4375 73.1875 C178.4375 73.8475 178.4375 74.5075 178.4375 75.1875 C179.4275 75.5175 180.4175 75.8475 181.4375 76.1875 C182.8671875 77.82421875 182.8671875 77.82421875 184.3125 79.875 C187.53863341 84.33582644 190.79174502 88.58622489 194.75 92.4375 C209.4375 107.46656977 209.4375 107.46656977 209.4375 114.1875 C210.0975 114.1875 210.7575 114.1875 211.4375 114.1875 C211.78530518 114.79746826 212.13311035 115.40743652 212.49145508 116.03588867 C214.07706339 118.8159199 215.6635236 121.59546408 217.25 124.375 C217.79720703 125.33470703 218.34441406 126.29441406 218.90820312 127.28320312 C219.43994141 128.21455078 219.97167969 129.14589844 220.51953125 130.10546875 C221.00655518 130.95906982 221.4935791 131.8126709 221.99536133 132.69213867 C222.99281528 134.41805315 224.01210006 136.13146716 225.04858398 137.83422852 C226.60124029 140.46492884 227.63302941 143.07112219 228.6875 145.9375 C230.36628935 150.41931302 232.11715528 154.84770522 233.98193359 159.25512695 C257.85079851 215.91268685 259.44189479 282.2881186 236.3125 339.5859375 C234.69840833 343.46585257 233.01114434 347.31065874 231.3046875 351.15063477 C230.4576156 353.14025212 229.71222964 355.14384408 228.984375 357.1796875 C227.3504893 361.6214725 225.18812776 365.71913785 222.9375 369.875 C222.54691406 370.60783203 222.15632813 371.34066406 221.75390625 372.09570312 C220.66208937 374.13412892 219.55400628 376.16251574 218.4375 378.1875 C217.61765625 379.68216797 217.61765625 379.68216797 216.78125 381.20703125 C216.3378125 381.86058594 215.894375 382.51414062 215.4375 383.1875 C214.7775 383.1875 214.1175 383.1875 213.4375 383.1875 C213.17066406 383.91710937 212.90382813 384.64671875 212.62890625 385.3984375 C211.45307354 388.15104259 210.08655123 390.3650238 208.375 392.8125 C206.59762171 395.35906156 205.42684061 397.21947816 204.4375 400.1875 C203.7775 400.5175 203.1175 400.8475 202.4375 401.1875 C202.1075 402.1775 201.7775 403.1675 201.4375 404.1875 C199.79401841 405.87703361 198.12307735 407.53996106 196.4375 409.1875 C195.13259712 410.71621471 193.82856322 412.24582814 192.54467773 413.79223633 C182.70666224 425.6266161 171.96266657 436.86489089 159.76953125 446.29296875 C157.31669714 448.2133785 157.31669714 448.2133785 154.8828125 450.7890625 C152.72978021 452.9008226 151.16504541 454.08205718 148.5 455.375 C144.3917528 457.53723537 140.72028415 460.11630354 137 462.875 C125.42288135 471.35073418 112.81486261 478.03887624 99.4375 483.1875 C97.80359073 483.8684681 96.17089267 484.55234584 94.5390625 485.23828125 C79.82530048 491.33409421 64.98257723 495.75088169 49.4375 499.1875 C48.45136719 499.4134082 47.46523438 499.63931641 46.44921875 499.87207031 C16.38643013 506.49279947 -18.59767836 506.00395515 -48.5625 499.1875 C-49.63306641 498.95675781 -50.70363281 498.72601562 -51.80664062 498.48828125 C-68.43701969 494.83982897 -83.9175262 489.27533458 -99.51489258 482.49682617 C-102.56833375 481.18499368 -105.64456029 479.94218737 -108.7265625 478.69921875 C-114.24581289 476.4049173 -119.36477595 473.67232226 -124.5 470.625 C-125.31017578 470.15642578 -126.12035156 469.68785156 -126.95507812 469.20507812 C-131.09110577 466.78307995 -134.88147146 464.27522585 -138.5625 461.1875 C-140.25906917 459.94214603 -141.967325 458.71253926 -143.6875 457.5 C-144.95980469 456.59701172 -144.95980469 456.59701172 -146.2578125 455.67578125 C-148.57147497 454.04617902 -148.57147497 454.04617902 -151.5625 453.1875 C-152.5525 451.7025 -152.5525 451.7025 -153.5625 450.1875 C-154.5525 449.8575 -155.5425 449.5275 -156.5625 449.1875 C-158.26442798 447.55685696 -159.92387795 445.88174713 -161.5625 444.1875 C-162.69513837 443.11399671 -163.83490618 442.04798187 -164.98046875 440.98828125 C-165.59003418 440.42407471 -166.19959961 439.85986816 -166.82763672 439.27856445 C-167.4620166 438.69163818 -168.09639648 438.10471191 -168.75 437.5 C-177.50160309 429.34949777 -185.92438906 421.23188394 -193.390625 411.859375 C-195.49056216 409.27599907 -197.68467349 406.82515438 -199.9375 404.375 C-202.83484542 401.15699975 -204.79331683 398.16816213 -206.5625 394.1875 C-207.6453125 392.57875 -207.6453125 392.57875 -208.75 390.9375 C-210.5625 388.1875 -210.5625 388.1875 -210.5625 386.1875 C-211.2225 386.1875 -211.8825 386.1875 -212.5625 386.1875 C-212.5625 385.1975 -212.5625 384.2075 -212.5625 383.1875 C-213.2225 383.1875 -213.8825 383.1875 -214.5625 383.1875 C-228.15536532 360.13652655 -228.15536532 360.13652655 -231.3984375 349.80078125 C-232.31314518 346.96150406 -233.30648752 344.24500669 -234.4140625 341.48046875 C-258.17666977 282.16133382 -257.32749523 215.58025151 -232.30859375 156.79296875 C-230.72446754 153.16894519 -229.08122448 149.5758193 -227.39550781 145.99804688 C-226.60262768 144.27471772 -225.87363215 142.52241887 -225.1484375 140.76953125 C-223.20405079 136.37789919 -220.9197606 132.24317101 -218.5625 128.0625 C-217.90507813 126.88494141 -217.90507813 126.88494141 -217.234375 125.68359375 C-216.39144897 124.178006 -215.54403309 122.67492009 -214.69140625 121.17480469 C-213.74054791 119.50093209 -212.80587985 117.81787741 -211.875 116.1328125 C-211.441875 115.49085938 -211.00875 114.84890625 -210.5625 114.1875 C-209.9025 114.1875 -209.2425 114.1875 -208.5625 114.1875 C-208.5625 113.1975 -208.5625 112.2075 -208.5625 111.1875 C-207.9025 111.1875 -207.2425 111.1875 -206.5625 111.1875 C-206.47613281 110.63964844 -206.38976562 110.09179688 -206.30078125 109.52734375 C-205.32758033 106.44296624 -203.68387015 104.33686526 -201.75 101.75 C-201.06292969 100.82316406 -200.37585938 99.89632812 -199.66796875 98.94140625 C-196.18086446 94.38035148 -192.62130933 90.24630933 -188.5625 86.1875 C-185.34741662 82.64534104 -182.21884282 79.17201423 -179.5625 75.1875 C-178.9025 75.1875 -178.2425 75.1875 -177.5625 75.1875 C-177.0675 73.7025 -177.0675 73.7025 -176.5625 72.1875 C-175.9025 72.1875 -175.2425 72.1875 -174.5625 72.1875 C-174.5625 71.5275 -174.5625 70.8675 -174.5625 70.1875 C-173.05346123 68.83376036 -171.47837302 67.55306599 -169.875 66.3125 C-169.00488281 65.63445312 -168.13476562 64.95640625 -167.23828125 64.2578125 C-165.42479505 62.85467719 -163.60963656 61.45370107 -161.79296875 60.0546875 C-159.49354734 58.38190305 -159.49354734 58.38190305 -158.5625 56.1875 C-157.5725 56.1875 -156.5825 56.1875 -155.5625 56.1875 C-155.30654053 55.58518555 -155.05058105 54.98287109 -154.78686523 54.36230469 C-153.42765362 51.94797627 -152.2408412 50.94780969 -149.97265625 49.390625 C-149.27076172 48.90722656 -148.56886719 48.42382812 -147.84570312 47.92578125 C-147.11287109 47.43464844 -146.38003906 46.94351563 -145.625 46.4375 C-144.89603516 45.93089844 -144.16707031 45.42429687 -143.41601562 44.90234375 C-137.95389362 41.1875 -137.95389362 41.1875 -134.5625 41.1875 C-134.5625 40.5275 -134.5625 39.8675 -134.5625 39.1875 C-112.67308241 27.00059478 -112.67308241 27.00059478 -105.5625 23.1875 C-104.84964844 22.79820312 -104.13679687 22.40890625 -103.40234375 22.0078125 C-102.73332031 21.65460937 -102.06429687 21.30140625 -101.375 20.9375 C-100.82457031 20.64359375 -100.27414062 20.3496875 -99.70703125 20.046875 C-97.08257441 18.99518009 -94.39258514 18.39943541 -91.64819336 17.74121094 C-88.47320733 16.89831403 -85.48326232 15.66106758 -82.4375 14.4375 C-56.05782759 4.28421808 -28.17910647 -0.04863268 0 0 Z " fill="#FEFEFE" transform="translate(959.5625,614.8125)"/>
<path d="M0 0 C0.66 0 1.32 0 2 0 C0.34908222 4.29238623 -2.73754566 6.8793915 -6 10 C-6.66 9.67 -7.32 9.34 -8 9 C-6.625 7 -6.625 7 -5 5 C-4.34 5 -3.68 5 -3 5 C-2.67 4.01 -2.34 3.02 -2 2 C-1.34 2 -0.68 2 0 2 C0 1.34 0 0.68 0 0 Z " fill="#CACACA" transform="translate(785,685)"/>
</svg>
